<svg width="220" height="41" viewBox="0 0 220 41" fill="none" xmlns="http://www.w3.org/2000/svg">
<path d="M6.30212 20.3032C6.30212 20.8465 6.33077 21.3863 6.38577 21.9204C7.84442 20.1279 10.5944 18.9195 14.5785 18.3239C18.5201 17.7351 20.9837 15.2558 23.3659 12.8573C24.4521 11.764 25.4776 10.731 26.6235 9.88711C28.1497 8.76305 29.7527 8.11503 31.2595 7.99658C30.2901 7.26657 29.2325 6.64702 28.1027 6.15503C23.9044 4.65969 21.7296 6.85202 18.9773 9.62631C18.1489 10.4611 17.2918 11.3244 16.3465 12.1034C14.1648 13.9005 11.6761 14.6191 9.72358 14.6191C8.87337 14.6191 8.12629 14.4825 7.54994 14.2399C6.73181 16.1452 6.30212 18.2123 6.30212 20.3032Z" fill="white"/>
<path d="M10.6242 12.3801C11.511 12.2548 13.2527 11.8369 14.9531 10.436C15.8148 9.72652 16.6318 8.90311 17.4224 8.1059C18.5717 6.94767 19.7519 5.75755 21.1074 4.88062C15.958 5.13003 11.2349 7.91343 8.55249 12.3027C8.92603 12.4188 9.62843 12.5202 10.6242 12.3801Z" fill="white"/>
<path d="M8.2248 27.7389C11.2727 28.5715 16.8105 26.4247 19.627 24.5205C21.6975 23.122 23.5538 21.6722 25.3481 20.2714C27.8082 18.3501 29.9326 16.6919 31.9859 15.6555C33.558 14.8629 34.9926 14.5109 36.3241 14.5964C35.9574 13.6818 35.5014 12.8015 34.9605 11.9678C34.2157 10.9417 33.3289 10.3415 32.3228 10.1844C30.5708 9.91103 28.8154 10.9713 27.9251 11.6262C26.9145 12.371 25.9463 13.3459 24.9207 14.3777C22.4102 16.9049 19.5651 19.7691 14.9039 20.465C11.1948 21.0196 8.74157 22.1266 7.80887 23.6675C7.18553 24.6982 7.35168 25.771 7.60605 26.4987C7.79168 26.9178 7.99793 27.3324 8.2248 27.7389Z" fill="white"/>
<path d="M28.9644 29.5304C28.8487 29.6602 28.7376 29.7832 28.6321 29.8994C25.9944 32.8252 23.3441 34.7704 20.7259 35.7042C21.1029 35.7316 21.4821 35.7452 21.8626 35.7452C25.7607 35.7452 29.4904 34.3068 32.3641 31.6954C34.8769 29.4108 36.5498 26.4053 37.1594 23.122C33.9797 23.9397 30.7817 27.5044 28.9644 29.5304Z" fill="white"/>
<path d="M37.4206 20.3032C37.4206 19.1644 37.2946 18.0278 37.0459 16.9196C35.8841 16.5529 34.6042 16.767 32.9759 17.5881C31.1151 18.5266 29.0687 20.1244 26.6991 21.9751C24.9608 23.3326 22.9889 24.8712 20.8565 26.3119C18.7275 27.7503 13.8761 30.0839 9.83813 30.0964C10.7903 31.2444 11.9075 32.2602 13.1473 33.0939C14.8477 34.0198 16.5161 34.3489 18.2451 34.1018C21.0398 33.7021 23.988 31.8013 27.0062 28.453C27.1104 28.338 27.2193 28.2161 27.3339 28.0874C29.4514 25.7277 33.2544 21.4899 37.4103 20.8601C37.416 20.6768 37.4206 20.4911 37.4206 20.3032Z" fill="white"/>
<path opacity="0.65" d="M37.4115 20.3032C37.4115 19.1644 37.2855 18.0278 37.0369 16.9196C35.875 16.5529 34.5951 16.767 32.9669 17.5881C31.106 18.5266 29.0596 20.1244 26.69 21.9751C24.9517 23.3326 22.9798 24.8712 20.8474 26.3119C18.7184 27.7503 13.867 30.0839 9.82904 30.0964C10.7812 31.2444 11.8984 32.2602 13.1382 33.0939C14.8386 34.0198 16.507 34.3489 18.236 34.1018C21.0307 33.7021 23.9789 31.8013 26.9971 28.453C27.1013 28.338 27.2102 28.2161 27.3248 28.0874C29.4423 25.7277 33.2453 21.4899 37.4012 20.8601C37.407 20.6768 37.4115 20.4911 37.4115 20.3032Z" fill="white"/>
<path opacity="0.65" d="M6.29297 20.3032C6.29297 20.8465 6.32161 21.3863 6.37661 21.9204C7.83526 20.1279 10.5853 18.9195 14.5693 18.3239C18.511 17.7351 20.9745 15.2558 23.3567 12.8573C24.443 11.764 25.4685 10.731 26.6143 9.88711C28.1406 8.76305 29.7436 8.11503 31.2504 7.99658C30.281 7.26657 29.2234 6.64702 28.0936 6.15503C23.8953 4.65969 21.7205 6.85202 18.9682 9.62631C18.1397 10.4611 17.2827 11.3244 16.3373 12.1034C14.1557 13.9005 11.6669 14.6191 9.71443 14.6191C8.86422 14.6191 8.11714 14.4825 7.54078 14.2399C6.72266 16.1452 6.29297 18.2123 6.29297 20.3032Z" fill="white"/>
<path opacity="0.65" d="M10.615 12.3801C11.5019 12.2548 13.2435 11.8369 14.944 10.436C15.8056 9.72652 16.6226 8.90311 17.4132 8.1059C18.5625 6.94767 19.7427 5.75755 21.0982 4.88062C15.9489 5.13003 11.2257 7.91343 8.54333 12.3027C8.91688 12.4188 9.61813 12.5202 10.615 12.3801Z" fill="white"/>
<path opacity="0.58" d="M8.21449 27.7389C11.2624 28.5715 16.8002 26.4247 19.6167 24.5205C21.6872 23.122 23.5434 21.6722 25.3378 20.2714C27.7979 18.3501 29.9223 16.6919 31.9756 15.6555C33.5477 14.8629 34.9823 14.5109 36.3138 14.5964C35.9471 13.6818 35.491 12.8015 34.9502 11.9678C34.2054 10.9417 33.3185 10.3415 32.3125 10.1844C30.5605 9.91103 28.8051 10.9713 27.9148 11.6262C26.9042 12.371 25.9359 13.3459 24.9104 14.3777C22.3999 16.9049 19.5548 19.7691 14.8935 20.465C11.1845 21.0196 8.73126 22.1266 7.79855 23.6675C7.17522 24.6982 7.34136 25.771 7.59574 26.4987C7.78136 26.9178 7.98876 27.3324 8.21449 27.7389Z" fill="white"/>
<path opacity="0.65" d="M28.9541 29.5304C28.8383 29.6602 28.7272 29.7832 28.6218 29.8994C25.9841 32.8252 23.3337 34.7704 20.7155 35.7042C21.0925 35.7316 21.4718 35.7452 21.8522 35.7452C25.7503 35.7452 29.48 34.3068 32.3537 31.6954C34.8666 29.4108 36.5395 26.4053 37.1491 23.122C33.9705 23.9397 30.7725 27.5044 28.9541 29.5304Z" fill="white"/>
<path d="M24.4578 0.566589L24.2836 0.472063C24.1988 0.425369 24.0923 0.319454 24.0464 0.235177L23.9513 0.0632074C23.9043 -0.0210691 23.8287 -0.0210691 23.7829 0.0632074L23.6889 0.235177C23.6431 0.319454 23.5354 0.425369 23.4506 0.472063L23.2764 0.566589C23.1916 0.613283 23.1916 0.688449 23.2764 0.734004L23.4506 0.82853C23.5342 0.875224 23.6431 0.98 23.6889 1.06542L23.7829 1.23739C23.8299 1.32166 23.9043 1.32166 23.9513 1.23739L24.0464 1.06542C24.0923 0.981139 24.2 0.875224 24.2836 0.82853L24.4578 0.734004C24.5426 0.68731 24.5426 0.612144 24.4578 0.566589Z" fill="white"/>
<path d="M43.3033 10.4543L43.0604 10.3233C42.9424 10.2584 42.7934 10.1103 42.7293 9.99304L42.5964 9.75274C42.531 9.63544 42.4256 9.63544 42.3603 9.75274L42.2285 9.99304C42.1644 10.1103 42.0131 10.2584 41.8963 10.3233L41.6533 10.4543C41.5353 10.5192 41.5353 10.624 41.6533 10.6878L41.8963 10.8199C42.0143 10.8848 42.1644 11.0317 42.2285 11.1501L42.3603 11.3904C42.4256 11.5077 42.5299 11.5077 42.5964 11.3904L42.7293 11.1501C42.7934 11.0317 42.9435 10.8836 43.0604 10.8199L43.3033 10.6878C43.4225 10.624 43.4225 10.5192 43.3033 10.4543Z" fill="white"/>
<path d="M31.3936 36.1211L31.2641 36.0516C31.2011 36.0174 31.1208 35.9377 31.0865 35.8751L31.0154 35.7464C30.9811 35.6837 30.9238 35.6837 30.8894 35.7464L30.8195 35.8751C30.7851 35.9377 30.7049 36.0174 30.6419 36.0516L30.5124 36.1211C30.4494 36.1552 30.4494 36.2122 30.5124 36.2452L30.6419 36.3158C30.7049 36.35 30.7851 36.4286 30.8195 36.4923L30.8894 36.621C30.9238 36.6837 30.9799 36.6837 31.0154 36.621L31.0865 36.4923C31.1208 36.4286 31.2011 36.35 31.2641 36.3158L31.3936 36.2452C31.4566 36.211 31.4566 36.1552 31.3936 36.1211Z" fill="white"/>
<path d="M44.8147 24.4522L44.6806 24.3793C44.6153 24.344 44.5328 24.2609 44.4973 24.1959L44.424 24.0627C44.3873 23.9978 44.3289 23.9978 44.2933 24.0627L44.22 24.1959C44.1845 24.2609 44.1008 24.3429 44.0355 24.3793L43.9015 24.4522C43.8361 24.4875 43.8361 24.5456 43.9015 24.5809L44.0355 24.6538C44.1008 24.6891 44.1845 24.7711 44.22 24.836L44.2933 24.9692C44.3289 25.0342 44.3873 25.0342 44.424 24.9692L44.4973 24.836C44.5328 24.7711 44.6153 24.6891 44.6806 24.6538L44.8147 24.5809C44.88 24.5456 44.88 24.4875 44.8147 24.4522Z" fill="white"/>
<path d="M40.3471 15.6635C40.3471 15.8002 40.2359 15.9106 40.0984 15.9106C39.9609 15.9106 39.8498 15.8002 39.8498 15.6635C39.8498 15.5268 39.9609 15.4164 40.0984 15.4164C40.2359 15.4164 40.3471 15.5268 40.3471 15.6635Z" fill="white"/>
<path d="M11.6806 5.08445C11.6806 5.22111 11.5695 5.33158 11.432 5.33158C11.2945 5.33158 11.1833 5.22111 11.1833 5.08445C11.1833 4.94778 11.2945 4.83731 11.432 4.83731C11.5695 4.83731 11.6806 4.94778 11.6806 5.08445Z" fill="white"/>
<path d="M39.0099 26.8905C39.0099 27.0271 38.8987 27.1376 38.7612 27.1376C38.6237 27.1376 38.5126 27.0271 38.5126 26.8905C38.5126 26.7538 38.6237 26.6433 38.7612 26.6433C38.8987 26.6433 39.0099 26.7538 39.0099 26.8905Z" fill="white"/>
<path d="M0.745949 7.39066C0.745949 7.52732 0.634803 7.63779 0.497303 7.63779C0.359803 7.63779 0.248657 7.52732 0.248657 7.39066C0.248657 7.25399 0.359803 7.14352 0.497303 7.14352C0.634803 7.14352 0.745949 7.25399 0.745949 7.39066Z" fill="white"/>
<path d="M27.2548 3.77817C27.2548 3.91484 27.1437 4.02531 27.0062 4.02531C26.8687 4.02531 26.7575 3.91484 26.7575 3.77817C26.7575 3.64151 26.8687 3.53104 27.0062 3.53104C27.1437 3.53104 27.2548 3.64151 27.2548 3.77817Z" fill="white"/>
<path d="M31.2011 3.22358C31.2011 3.36024 31.0899 3.47071 30.9524 3.47071C30.8149 3.47071 30.7038 3.36024 30.7038 3.22358C30.7038 3.08691 30.8149 2.97644 30.9524 2.97644C31.0899 2.97758 31.2011 3.08805 31.2011 3.22358Z" fill="white"/>
<path d="M0.497292 16.5655C0.497292 16.7021 0.386146 16.8126 0.248646 16.8126C0.111146 16.8126 0 16.7021 0 16.5655C0 16.4288 0.111146 16.3183 0.248646 16.3183C0.386146 16.3183 0.497292 16.4288 0.497292 16.5655Z" fill="white"/>
<path d="M3.42949 33.7089C3.42949 34.0392 3.16022 34.3068 2.82793 34.3068C2.49564 34.3068 2.22522 34.0392 2.22522 33.7089C2.22522 33.3787 2.49449 33.111 2.82793 33.111C3.16022 33.111 3.42949 33.3787 3.42949 33.7089Z" fill="white"/>
<path d="M11.1639 36.8283C11.1639 36.965 11.0528 37.0754 10.9153 37.0754C10.7778 37.0754 10.6666 36.965 10.6666 36.8283C10.6666 36.6916 10.7778 36.5812 10.9153 36.5812C11.0528 36.5812 11.1639 36.6916 11.1639 36.8283Z" fill="white"/>
<path d="M5.79905 12.633C5.79905 12.7696 5.6879 12.8801 5.5504 12.8801C5.4129 12.8801 5.30176 12.7696 5.30176 12.633C5.30176 12.4963 5.4129 12.3858 5.5504 12.3858C5.6879 12.3858 5.79905 12.4963 5.79905 12.633Z" fill="white"/>
<path d="M6.65613 29.3789C6.65613 29.5816 6.49113 29.7456 6.28717 29.7456C6.08321 29.7456 5.91821 29.5816 5.91821 29.3789C5.91821 29.1762 6.08321 29.0122 6.28717 29.0122C6.49113 29.0122 6.65613 29.1762 6.65613 29.3789Z" fill="white"/>
<path d="M18.637 1.45604C18.637 1.74759 18.3998 1.98334 18.1064 1.98334C17.8131 1.98334 17.5759 1.74759 17.5759 1.45604C17.5759 1.16449 17.8131 0.928741 18.1064 0.928741C18.3986 0.928741 18.637 1.16563 18.637 1.45604Z" fill="white"/>
<path d="M24.019 40.4727C24.019 40.7631 23.7818 41 23.4885 41C23.1951 41 22.9579 40.7642 22.9579 40.4727C22.9579 40.1811 23.1951 39.9454 23.4885 39.9454C23.7807 39.9454 24.019 40.1823 24.019 40.4727Z" fill="white"/>
<path d="M18.433 36.6005C18.0789 36.6005 17.7902 36.3147 17.7902 35.9628C17.7902 35.6109 18.0789 35.325 18.433 35.325C18.787 35.325 19.0758 35.6109 19.0758 35.9628C19.0758 36.3147 18.787 36.6005 18.433 36.6005ZM18.433 35.7054C18.2897 35.7054 18.1729 35.8204 18.1729 35.9628C18.1729 36.1051 18.2897 36.2202 18.433 36.2202C18.5762 36.2202 18.6919 36.1051 18.6919 35.9628C18.6931 35.8204 18.5762 35.7054 18.433 35.7054Z" fill="white"/>
<path d="M2.67553 15.528C2.26532 15.528 1.93188 15.1966 1.93188 14.79C1.93188 14.3834 2.26532 14.052 2.67553 14.052C3.08574 14.052 3.41918 14.3834 3.41918 14.79C3.41918 15.1966 3.08574 15.528 2.67553 15.528ZM2.67553 14.4916C2.50938 14.4916 2.37418 14.6249 2.37418 14.79C2.37418 14.9551 2.50938 15.0884 2.67553 15.0884C2.84168 15.0884 2.97574 14.9551 2.97574 14.79C2.97574 14.6249 2.84168 14.4916 2.67553 14.4916Z" fill="white"/>
<path d="M37.5513 9.65593C37.219 9.65593 36.9485 9.38716 36.9485 9.05802C36.9485 8.72775 37.219 8.46011 37.5513 8.46011C37.8835 8.46011 38.154 8.72889 38.154 9.05802C38.154 9.38829 37.8847 9.65593 37.5513 9.65593ZM37.5513 8.81658C37.4172 8.81658 37.3072 8.92477 37.3072 9.05802C37.3072 9.19127 37.416 9.29946 37.5513 9.29946C37.6853 9.29946 37.7953 9.19127 37.7953 9.05802C37.7953 8.92477 37.6865 8.81658 37.5513 8.81658Z" fill="white"/>
<path d="M36.7388 36.4798C36.874 36.3055 36.874 36.063 36.7388 35.8876L37.5008 35.0403L36.6472 35.7965C36.4718 35.6632 36.2266 35.6632 36.0513 35.7976L35.1965 35.0403L35.9597 35.8887C35.8256 36.063 35.8256 36.3055 35.9585 36.4798L35.1965 37.3271L36.0502 36.5698C36.2266 36.7041 36.4707 36.7041 36.6472 36.5698L37.5008 37.326L36.7388 36.4798Z" fill="white"/>
<path d="M3.10295 22.9432C3.1992 22.8202 3.1992 22.6493 3.10295 22.5252L3.64034 21.9273L3.03763 22.4614C2.91388 22.3669 2.74086 22.368 2.61711 22.4625L2.0144 21.9273L2.55295 22.5263C2.45784 22.6493 2.45784 22.8202 2.55295 22.9432L2.0144 23.5411L2.61711 23.0069C2.74086 23.1015 2.91388 23.1015 3.03878 23.0069L3.64149 23.5411L3.10295 22.9432Z" fill="white"/>
<path d="M9.12315 4.23945C9.2194 4.11645 9.2194 3.94562 9.12315 3.82148L9.66054 3.22357L9.05784 3.7577C8.93409 3.66432 8.76106 3.66432 8.63731 3.75884L8.03461 3.22471L8.57315 3.82376C8.47804 3.94676 8.47804 4.11759 8.57315 4.24059L8.03461 4.83849L8.63731 4.30436C8.76106 4.39889 8.93409 4.39889 9.05898 4.30436L9.66169 4.83849L9.12315 4.23945Z" fill="white"/>
<path d="M34.6592 5.54004C34.7554 5.41705 34.7554 5.24622 34.6592 5.12208L35.1966 4.52417L34.5938 5.0583C34.4701 4.96491 34.2971 4.96491 34.1733 5.05944L33.5706 4.52531L34.1092 5.12436C34.0141 5.24735 34.0141 5.41819 34.1092 5.54118L33.5706 6.13909L34.1733 5.60496C34.2971 5.69949 34.4701 5.69949 34.595 5.60496L35.1977 6.13909L34.6592 5.54004Z" fill="white"/>
<path d="M53.5906 26.7311H62.637V27.7697H52.0919V26.8415L60.7853 14.2695H52.3531V13.2309H62.315V14.101L53.5906 26.7311Z" fill="white"/>
<path d="M79.6354 20.7998H72.7833V26.7311H80.6621V27.7697H71.5458V13.2309H80.6117V14.2695H72.7833V19.7612H79.6354V20.7998Z" fill="white"/>
<path d="M100.358 27.7697H99.1202L90.6984 15.3275V27.7697H89.4506V13.2309H90.6984L99.1306 25.6822V13.2309H100.358V27.7697V27.7697Z" fill="white"/>
<path d="M111.903 13.2309L117.307 26.0614L122.73 13.2309H124.38V27.7697H123.143V21.4387L123.243 14.9483L117.789 27.7697H116.834L111.4 14.9984L111.501 21.3989V27.7697H110.263V13.2309H111.903Z" fill="white"/>
<path d="M142.365 23.6857H135.714L134.205 27.7697H132.906L138.451 13.2309H139.628L145.173 27.7697H143.885L142.365 23.6857ZM136.096 22.6471H141.972L139.034 14.7285L136.096 22.6471Z" fill="white"/>
<path d="M158.981 21.7086H154.724V27.7697H153.476V13.2309H158.236C159.799 13.2309 161.02 13.6067 161.898 14.3583C162.777 15.11 163.216 16.16 163.216 17.5096C163.216 18.4401 162.941 19.2612 162.391 19.973C161.841 20.6848 161.103 21.1768 160.177 21.449L163.839 27.6399V27.7697H162.522L158.981 21.7086ZM154.725 20.67H158.519C159.558 20.67 160.394 20.3773 161.025 19.7896C161.655 19.2031 161.97 18.4435 161.97 17.5096C161.97 16.4835 161.642 15.6863 160.984 15.1191C160.326 14.5531 159.404 14.2695 158.217 14.2695H154.725V20.67V20.67Z" fill="white"/>
<path d="M176.071 20.5504L174.009 22.5673V27.7697H172.771V13.2309H174.009V21.0697L181.515 13.2309H183.074L176.936 19.7008L183.546 27.7686H182.037L176.071 20.5504Z" fill="white"/>
<path d="M200.043 20.7998H193.191V26.7311H201.07V27.7697H191.953V13.2309H201.019V14.2695H193.191V19.7612H200.043V20.7998Z" fill="white"/>
<path d="M220 14.2695H214.979V27.7697H213.741V14.2695H208.731V13.2309H220V14.2695Z" fill="white"/>
</svg>
